<svg width="97" height="22" viewBox="0 0 97 22" fill="none" xmlns="http://www.w3.org/2000/svg">
<path d="M4.14 2.04V10.68C4.14 11.6267 4.38667 12.3533 4.88 12.86C5.37333 13.3533 6.06667 13.6 6.96 13.6C7.86667 13.6 8.56667 13.3533 9.06 12.86C9.55333 12.3533 9.8 11.6267 9.8 10.68V2.04H12.62V10.66C12.62 11.8467 12.36 12.8533 11.84 13.68C11.3333 14.4933 10.6467 15.1067 9.78 15.52C8.92667 15.9333 7.97333 16.14 6.92 16.14C5.88 16.14 4.93333 15.9333 4.08 15.52C3.24 15.1067 2.57333 14.4933 2.08 13.68C1.58667 12.8533 1.34 11.8467 1.34 10.66V2.04H4.14ZM17.1253 6.54C17.4853 6.00667 17.9786 5.57333 18.6053 5.24C19.2453 4.90667 19.972 4.74 20.7853 4.74C21.732 4.74 22.5853 4.97333 23.3453 5.44C24.1186 5.90667 24.7253 6.57333 25.1653 7.44C25.6186 8.29333 25.8453 9.28667 25.8453 10.42C25.8453 11.5533 25.6186 12.56 25.1653 13.44C24.7253 14.3067 24.1186 14.98 23.3453 15.46C22.5853 15.94 21.732 16.18 20.7853 16.18C19.9586 16.18 19.232 16.02 18.6053 15.7C17.992 15.3667 17.4986 14.94 17.1253 14.42V16H14.3253V1.2H17.1253V6.54ZM22.9853 10.42C22.9853 9.75333 22.8453 9.18 22.5653 8.7C22.2986 8.20667 21.9386 7.83333 21.4853 7.58C21.0453 7.32667 20.5653 7.2 20.0453 7.2C19.5386 7.2 19.0586 7.33333 18.6053 7.6C18.1653 7.85333 17.8053 8.22667 17.5253 8.72C17.2586 9.21333 17.1253 9.79333 17.1253 10.46C17.1253 11.1267 17.2586 11.7067 17.5253 12.2C17.8053 12.6933 18.1653 13.0733 18.6053 13.34C19.0586 13.5933 19.5386 13.72 20.0453 13.72C20.5653 13.72 21.0453 13.5867 21.4853 13.32C21.9386 13.0533 22.2986 12.6733 22.5653 12.18C22.8453 11.6867 22.9853 11.1 22.9853 10.42ZM28.3 3.6C27.8067 3.6 27.3933 3.44667 27.06 3.14C26.74 2.82 26.58 2.42667 26.58 1.96C26.58 1.49333 26.74 1.10667 27.06 0.799999C27.3933 0.479999 27.8067 0.319999 28.3 0.319999C28.7933 0.319999 29.2 0.479999 29.52 0.799999C29.8533 1.10667 30.02 1.49333 30.02 1.96C30.02 2.42667 29.8533 2.82 29.52 3.14C29.2 3.44667 28.7933 3.6 28.3 3.6ZM29.68 4.92V16H26.88V4.92H29.68ZM30.7264 10.44C30.7264 9.33333 30.9531 8.35333 31.4064 7.5C31.8731 6.63333 32.4997 5.96 33.2864 5.48C34.0731 5 34.9397 4.76 35.8864 4.76C36.6731 4.76 37.3664 4.91333 37.9664 5.22C38.5797 5.51333 39.0731 5.89333 39.4464 6.36V4.92H42.2664V21.28H39.4464V14.48C39.0731 14.96 38.5731 15.36 37.9464 15.68C37.3197 16 36.6131 16.16 35.8264 16.16C34.8931 16.16 34.0331 15.92 33.2464 15.44C32.4731 14.9467 31.8597 14.2667 31.4064 13.4C30.9531 12.5333 30.7264 11.5467 30.7264 10.44ZM39.4464 10.46C39.4464 9.78 39.3064 9.19333 39.0264 8.7C38.7464 8.20667 38.3797 7.83333 37.9264 7.58C37.4864 7.32667 37.0131 7.2 36.5064 7.2C36.0131 7.2 35.5397 7.32667 35.0864 7.58C34.6464 7.83333 34.2864 8.20667 34.0064 8.7C33.7264 9.18 33.5864 9.76 33.5864 10.44C33.5864 11.12 33.7264 11.7133 34.0064 12.22C34.2864 12.7133 34.6464 13.0867 35.0864 13.34C35.5397 13.5933 36.0131 13.72 36.5064 13.72C37.0131 13.72 37.4864 13.5933 37.9264 13.34C38.3797 13.0867 38.7464 12.7133 39.0264 12.22C39.3064 11.7267 39.4464 11.14 39.4464 10.46ZM48.2411 16.18C47.3344 16.18 46.5211 16.02 45.8011 15.7C45.0811 15.3667 44.5078 14.92 44.0811 14.36C43.6678 13.8 43.4411 13.18 43.4011 12.5H46.2211C46.2744 12.9267 46.4811 13.28 46.8411 13.56C47.2144 13.84 47.6744 13.98 48.2211 13.98C48.7544 13.98 49.1678 13.8733 49.4611 13.66C49.7678 13.4467 49.9211 13.1733 49.9211 12.84C49.9211 12.48 49.7344 12.2133 49.3611 12.04C49.0011 11.8533 48.4211 11.6533 47.6211 11.44C46.7944 11.24 46.1144 11.0333 45.5811 10.82C45.0611 10.6067 44.6078 10.28 44.2211 9.84C43.8478 9.4 43.6611 8.80667 43.6611 8.06C43.6611 7.44667 43.8344 6.88667 44.1811 6.38C44.5411 5.87333 45.0478 5.47333 45.7011 5.18C46.3678 4.88667 47.1478 4.74 48.0411 4.74C49.3611 4.74 50.4144 5.07333 51.2011 5.74C51.9878 6.39333 52.4211 7.28 52.5011 8.4H49.8211C49.7811 7.96 49.5944 7.61333 49.2611 7.36C48.9411 7.09333 48.5078 6.96 47.9611 6.96C47.4544 6.96 47.0611 7.05333 46.7811 7.24C46.5144 7.42667 46.3811 7.68667 46.3811 8.02C46.3811 8.39333 46.5678 8.68 46.9411 8.88C47.3144 9.06667 47.8944 9.26 48.6811 9.46C49.4811 9.66 50.1411 9.86667 50.6611 10.08C51.1811 10.2933 51.6278 10.6267 52.0011 11.08C52.3878 11.52 52.5878 12.1067 52.6011 12.84C52.6011 13.48 52.4211 14.0533 52.0611 14.56C51.7144 15.0667 51.2078 15.4667 50.5411 15.76C49.8878 16.04 49.1211 16.18 48.2411 16.18ZM69.2595 4.92L66.0195 16H62.9995L60.9795 8.26L58.9595 16H55.9195L52.6595 4.92H55.4995L57.4595 13.36L59.5795 4.92H62.5395L64.6195 13.34L66.5795 4.92H69.2595ZM69.0545 10.42C69.0545 9.3 69.2745 8.30667 69.7145 7.44C70.1679 6.57333 70.7745 5.90667 71.5345 5.44C72.3079 4.97333 73.1679 4.74 74.1145 4.74C74.9412 4.74 75.6612 4.90667 76.2745 5.24C76.9012 5.57333 77.4012 5.99333 77.7745 6.5V4.92H80.5945V16H77.7745V14.38C77.4145 14.9 76.9145 15.3333 76.2745 15.68C75.6479 16.0133 74.9212 16.18 74.0945 16.18C73.1612 16.18 72.3079 15.94 71.5345 15.46C70.7745 14.98 70.1679 14.3067 69.7145 13.44C69.2745 12.56 69.0545 11.5533 69.0545 10.42ZM77.7745 10.46C77.7745 9.78 77.6412 9.2 77.3745 8.72C77.1079 8.22667 76.7479 7.85333 76.2945 7.6C75.8412 7.33333 75.3545 7.2 74.8345 7.2C74.3145 7.2 73.8345 7.32667 73.3945 7.58C72.9545 7.83333 72.5945 8.20667 72.3145 8.7C72.0479 9.18 71.9145 9.75333 71.9145 10.42C71.9145 11.0867 72.0479 11.6733 72.3145 12.18C72.5945 12.6733 72.9545 13.0533 73.3945 13.32C73.8479 13.5867 74.3279 13.72 74.8345 13.72C75.3545 13.72 75.8412 13.5933 76.2945 13.34C76.7479 13.0733 77.1079 12.7 77.3745 12.22C77.6412 11.7267 77.7745 11.14 77.7745 10.46ZM85.1292 6.52C85.4892 6.01333 85.9826 5.59333 86.6092 5.26C87.2492 4.91333 87.9759 4.74 88.7892 4.74C89.7359 4.74 90.5892 4.97333 91.3492 5.44C92.1226 5.90667 92.7292 6.57333 93.1692 7.44C93.6226 8.29333 93.8492 9.28667 93.8492 10.42C93.8492 11.5533 93.6226 12.56 93.1692 13.44C92.7292 14.3067 92.1226 14.98 91.3492 15.46C90.5892 15.94 89.7359 16.18 88.7892 16.18C87.9759 16.18 87.2559 16.0133 86.6292 15.68C86.0159 15.3467 85.5159 14.9267 85.1292 14.42V21.28H82.3292V4.92H85.1292V6.52ZM90.9892 10.42C90.9892 9.75333 90.8492 9.18 90.5692 8.7C90.3026 8.20667 89.9426 7.83333 89.4892 7.58C89.0492 7.32667 88.5692 7.2 88.0492 7.2C87.5426 7.2 87.0626 7.33333 86.6092 7.6C86.1692 7.85333 85.8092 8.22667 85.5292 8.72C85.2626 9.21333 85.1292 9.79333 85.1292 10.46C85.1292 11.1267 85.2626 11.7067 85.5292 12.2C85.8092 12.6933 86.1692 13.0733 86.6092 13.34C87.0626 13.5933 87.5426 13.72 88.0492 13.72C88.5692 13.72 89.0492 13.5867 89.4892 13.32C89.9426 13.0533 90.3026 12.6733 90.5692 12.18C90.8492 11.6867 90.9892 11.1 90.9892 10.42Z" fill="url(#paint0_linear_689_6)"/>
<defs>
<linearGradient id="paint0_linear_689_6" x1="25.0862" y1="-8.49999" x2="46.5679" y2="42.8812" gradientUnits="userSpaceOnUse">
<stop offset="0.35895" stop-color="#B6C2E0"/>
<stop offset="1" stop-color="#909BA8"/>
</linearGradient>
</defs>
</svg>
